<?xml version="1.0" encoding="UTF-8" standalone="no"?>
<!-- Created with Inkscape (http://www.inkscape.org/) -->

<svg
   xmlns:dc="http://purl.org/dc/elements/1.1/"
   xmlns:cc="http://creativecommons.org/ns#"
   xmlns:rdf="http://www.w3.org/1999/02/22-rdf-syntax-ns#"
   xmlns:svg="http://www.w3.org/2000/svg"
   xmlns="http://www.w3.org/2000/svg"
   xmlns:sodipodi="http://sodipodi.sourceforge.net/DTD/sodipodi-0.dtd"
   xmlns:inkscape="http://www.inkscape.org/namespaces/inkscape"
   width="96mm"
   height="96mm"
   viewBox="0 0 95.999998 96"
   version="1.1"
   id="svg8"
   inkscape:version="0.92.3 (2405546, 2018-03-11)"
   sodipodi:docname="arrow-small.svg">
  <defs
     id="defs2" />
  <sodipodi:namedview
     id="base"
     pagecolor="#ffffff"
     bordercolor="#666666"
     borderopacity="1.0"
     inkscape:pageopacity="0.0"
     inkscape:pageshadow="2"
     inkscape:zoom="2.8284271"
     inkscape:cx="198.17382"
     inkscape:cy="195.45439"
     inkscape:document-units="mm"
     inkscape:current-layer="layer1-6"
     showgrid="true"
     inkscape:window-width="1849"
     inkscape:window-height="1176"
     inkscape:window-x="1151"
     inkscape:window-y="346"
     inkscape:window-maximized="1"
     width="150mm"
     inkscape:snap-grids="true"
     inkscape:snap-to-guides="false"
     inkscape:snap-text-baseline="true"
     fit-margin-top="0"
     fit-margin-left="0"
     fit-margin-right="0"
     fit-margin-bottom="0">
    <inkscape:grid
       type="xygrid"
       id="grid138"
       empspacing="5"
       color="#143fff"
       opacity="0.1254902"
       empcolor="#3f3f33"
       empopacity="0.25098039"
       originx="-11.649359"
       originy="-6.9903347" />
  </sodipodi:namedview>
  <metadata
     id="metadata5">
    <rdf:RDF>
      <cc:Work
         rdf:about="">
        <dc:format>image/svg+xml</dc:format>
        <dc:type
           rdf:resource="http://purl.org/dc/dcmitype/StillImage" />
        <dc:title></dc:title>
      </cc:Work>
    </rdf:RDF>
  </metadata>
  <g
     inkscape:label="Calque 1"
     inkscape:groupmode="layer"
     id="layer1"
     style="display:inline"
     transform="translate(-66.201316,-109.17002)">
    <g
       id="layer1-6"
       inkscape:label="Calque 1"
       transform="matrix(0.15098952,0,0,0.13437061,51.519346,188.46599)">
      <path
         sodipodi:nodetypes="cccccccc"
         inkscape:connector-curvature="0"
         id="path3904"
         d="m 598.35352,-542.36971 -330.43921,246.69469 c -53.32087,44.72568 -53.32087,91.98304 0,136.70877 L 598.35352,87.728387 V -0.87915946 L 309.21921,-227.32063 598.35352,-453.76217 Z"
         style="fill:black;fill-rule:evenodd;stroke:#000000;stroke-width:3.08982515px;stroke-linecap:butt;stroke-linejoin:miter;stroke-opacity:1" />
    </g>
    <path
       d="M 3.4742945,0.69394868 V 19.189192 M 6.1201278,0.69394868 V 19.189192 M 8.7659611,0.69394868 V 19.189192 M 11.411794,0.69394868 V 19.189192 M 14.057628,0.69394868 V 19.189192 M 16.703461,0.69394868 V 19.189192 M 3.4742945,0.69394868 H 17.079469 M 3.4742945,3.3397819 H 17.079469 M 3.4742945,5.9856152 H 17.079469 M 3.4742945,8.6314485 H 17.079469 M 3.4742945,11.277282 H 17.079469 M 3.4742945,13.923115 H 17.079469 M 3.4742945,16.568948 H 17.079469"
       style="fill:black;stroke:#000000;stroke-width:0.26458299px"
       id="path116"
       inkscape:connector-curvature="0" />
    <path
       d="M 0,0 V 19.999999 M 0.26458333,0 V 19.999999 M 0.52916665,0 V 19.999999 M 0.79374998,0 V 19.999999 M 1.0583333,0 V 19.999999 M 1.3229166,0 V 19.999999 M 1.5875,0 V 19.999999 M 1.8520833,0 V 19.999999 M 2.1166666,0 V 19.999999 M 2.3812499,0 V 19.999999 M 2.6458333,0 V 19.999999 M 2.9104166,0 V 19.999999 M 3.1749999,0 V 19.999999 M 3.4395832,0 V 19.999999 M 3.7041666,0 V 19.999999 M 3.9687499,0 V 19.999999 M 4.2333332,0 V 19.999999 M 4.4979165,0 V 19.999999 M 4.7624999,0 V 19.999999 M 5.0270832,0 V 19.999999 M 5.2916665,0 V 19.999999 M 5.5562498,0 V 19.999999 M 5.8208332,0 V 19.999999 M 6.0854165,0 V 19.999999 M 6.3499998,0 V 19.999999 M 6.6145831,0 V 19.999999 M 6.8791665,0 V 19.999999 M 7.1437498,0 V 19.999999 M 7.4083331,0 V 19.999999 M 7.6729165,0 V 19.999999 M 7.9374998,0 V 19.999999 M 8.2020831,0 V 19.999999 M 8.4666664,0 V 19.999999 M 8.7312498,0 V 19.999999 M 8.9958331,0 V 19.999999 M 9.2604164,0 V 19.999999 M 9.5249997,0 V 19.999999 M 9.7895831,0 V 19.999999 M 10.054166,0 V 19.999999 M 10.31875,0 V 19.999999 M 10.583333,0 V 19.999999 M 10.847916,0 V 19.999999 M 11.1125,0 V 19.999999 M 11.377083,0 V 19.999999 M 11.641666,0 V 19.999999 M 11.90625,0 V 19.999999 M 12.170833,0 V 19.999999 M 12.435416,0 V 19.999999 M 12.7,0 V 19.999999 M 12.964583,0 V 19.999999 M 13.229166,0 V 19.999999 M 13.49375,0 V 19.999999 M 13.758333,0 V 19.999999 M 14.022916,0 V 19.999999 M 14.2875,0 V 19.999999 M 14.552083,0 V 19.999999 M 14.816666,0 V 19.999999 M 15.08125,0 V 19.999999 M 15.345833,0 V 19.999999 M 15.610416,0 V 19.999999 M 15.875,0 V 19.999999 M 16.139583,0 V 19.999999 M 16.404166,0 V 19.999999 M 16.66875,0 V 19.999999 M 16.933333,0 V 19.999999 M 17.197916,0 V 19.999999 M 17.4625,0 V 19.999999 M 17.727083,0 V 19.999999 M 17.991666,0 V 19.999999 M 18.256249,0 V 19.999999 M 18.520833,0 V 19.999999 M 18.785416,0 V 19.999999 M 19.049999,0 V 19.999999 M 19.314583,0 V 19.999999 M 19.579166,0 V 19.999999 M 19.843749,0 V 19.999999 M 0,0 H 19.999999 M 0,2.6458333 H 19.999999 M 0,5.2916665 H 19.999999 M 0,7.9374998 H 19.999999 M 0,10.583333 H 19.999999 M 0,13.229166 H 19.999999 M 0,15.875 H 19.999999 M 0,18.520833 h 19.999999"
       style="fill:black;stroke:#000000;stroke-width:0.0264583px"
       id="path136"
       inkscape:connector-curvature="0" />
  </g>
</svg>